<svg xmlns="http://www.w3.org/2000/svg" viewBox="0 0 24 24" fill="none" stroke="currentColor" stroke-width="2" stroke-linecap="round" stroke-linejoin="round">
  <path d="M8.243 7.34l-6.38.925-.011.38c0 .218.017.435.051.648l6.33-.916m0 0l2.777-5.625c.082-.167.195-.317.332-.444l-3.11 6.069m0 0l-5.64 4.099a2.003 2.003 0 0 0 .38.66l5.26-4.76m0 0l5.64 4.099c.144.104.302.184.47.238l-6.11-4.337m0 0l3.11 6.069a2.003 2.003 0 0 0 .332-.444l-3.442-5.625m0 0l6.38.925c.034-.213.051-.43.051-.648l-.011-.38-6.42.903m0 0l-2.777-5.625a2.003 2.003 0 0 0-.553-.053c-.194 0-.382.03-.553.088l3.33 5.59"/>
  <polygon points="12 2 15.09 8.26 22 9.27 17 14.14 18.18 21.02 12 17.77 5.82 21.02 7 14.14 2 9.27 8.91 8.26 12 2"/>
</svg>

